# File created by Blade
# Date/Time:  Wed Apr 08 17:17:01 2015
# Frame Rate: 120.000 fps
#------------------------------------------------------
:FULLY-SPECIFIED
:DEGREES
949
root 5.783273 36.624719 5.803837 156.428975 -45.939168 -150.464245
Spine 12.926695 0.683406 9.791769
Head 7.148591 4.057973 12.422325
LeftShoulder -7.012182 15.530544 17.084838
LeftArm 15.814616 29.925884 -75.109163
LeftForeArm 29.227786 -0.000000 23.087244
LeftHand -8.212187 0.000000 -21.783827
LeftHandThumb1 -26.253704 0.000000 33.147579
RightShoulder -35.233247 -47.952248 26.815773
RightArm 51.908712 -10.468974 63.565944
RightForeArm 43.069112 -0.000000 15.873743
RightHand -0.357849 0.000000 7.634091
RightHandThumb1 -24.326973 -0.000000 -32.862282
LeftUpLeg -6.049645 47.869100 9.703328
LeftLeg 20.238376 -0.000000 -0.000000
LeftFoot -25.906685 19.783300 -13.541258
LeftToeBase 6.454984 -0.000000 -0.000000
RightUpLeg -38.488079 -30.889255 -29.489548
RightLeg 152.378739 -0.000000 -0.000000
RightFoot 36.432367 10.433494 12.241578
RightToeBase 3.442449 -0.000000 -0.000000
950
root 5.793828 36.624115 5.813090 156.597389 -45.705495 -150.404608
Spine 12.842947 0.516410 9.830911
Head 7.018244 3.977040 12.557962
LeftShoulder -7.014869 15.513166 17.124758
LeftArm 15.786721 29.964540 -75.106280
LeftForeArm 29.367480 0.000000 23.123625
LeftHand -8.249243 -0.000000 -21.818230
LeftHandThumb1 -26.253704 0.000000 33.147579
RightShoulder -35.470621 -47.946653 26.993979
RightArm 51.855954 -10.614761 63.344767
RightForeArm 43.176217 -0.000000 16.074250
RightHand -0.390103 -0.000000 7.664455
RightHandThumb1 -24.326973 -0.000000 -32.862282
LeftUpLeg -6.427516 48.036213 9.648507
LeftLeg 20.482885 -0.000000 -0.000000
LeftFoot -26.025927 19.769235 -13.639652
LeftToeBase 6.462698 -0.000000 -0.000000
RightUpLeg -38.022831 -30.709664 -29.613512
RightLeg 152.428442 -0.000000 -0.000000
RightFoot 36.488221 10.619199 12.201448
RightToeBase 3.189743 -0.000000 -0.000000
951
root 5.803728 36.625228 5.823438 156.753138 -45.478812 -150.347450
Spine 12.787501 0.356495 9.864645
Head 6.863901 3.892656 12.705199
LeftShoulder -7.028745 15.475447 17.151041
LeftArm 15.789315 30.143277 -75.007454
LeftForeArm 29.358825 -0.000000 23.190588
LeftHand -8.277039 0.000000 -21.843428
LeftHandThumb1 -26.253704 0.000000 33.147579
RightShoulder -35.667170 -47.907349 27.133931
RightArm 51.712593 -10.641149 63.339680
RightForeArm 43.109046 -0.000000 16.278017
RightHand -0.498658 0.000000 7.594342
RightHandThumb1 -24.326973 -0.000000 -32.862282
LeftUpLeg -6.767093 48.189906 9.601803
LeftLeg 20.689233 -0.000000 -0.000000
LeftFoot -26.125005 19.725954 -13.772934
LeftToeBase 6.423943 -0.000000 -0.000000
RightUpLeg -37.527106 -30.471778 -29.774594
RightLeg 152.468742 -0.000000 -0.000000
RightFoot 36.580035 10.823908 12.127206
RightToeBase 3.014756 -0.000000 -0.000000
952
root 5.816834 36.628022 5.831968 156.885796 -45.252638 -150.258143
Spine 12.736344 0.171538 9.902498
Head 6.718105 3.850578 12.852572
LeftShoulder -7.030522 15.435931 17.199746
LeftArm 15.752134 30.128426 -75.033910
LeftForeArm 29.517716 -0.000000 23.179232
LeftHand -8.277709 0.000000 -21.894600
LeftHandThumb1 -26.253704 0.000000 33.147579
RightShoulder -35.873026 -47.909023 27.300717
RightArm 51.632358 -10.681015 63.255207
RightForeArm 43.001934 -0.000000 16.472140
RightHand -0.392560 -0.000000 7.669190
RightHandThumb1 -24.326973 -0.000000 -32.862282
LeftUpLeg -7.102750 48.294352 9.573411
LeftLeg 20.870748 -0.000000 -0.000000
LeftFoot -26.239878 19.724378 -13.919347
LeftToeBase 6.453093 -0.000000 -0.000000
RightUpLeg -37.005691 -30.177622 -29.942767
RightLeg 152.487403 -0.000000 -0.000000
RightFoot 36.811375 11.023461 12.137545
RightToeBase 2.899529 -0.000000 -0.000000
953
root 5.832420 36.632490 5.841902 157.037045 -45.055043 -150.183305
Spine 12.677383 -0.004730 9.913880
Head 6.603482 3.739471 13.007886
LeftShoulder -6.996879 15.381193 17.254011
LeftArm 15.687567 30.159388 -75.021058
LeftForeArm 29.617493 -0.000000 23.219356
LeftHand -8.260144 -0.000000 -21.932080
LeftHandThumb1 -26.253704 0.000000 33.147579
RightShoulder -36.068212 -47.904247 27.442030
RightArm 51.499788 -10.715381 63.247969
RightForeArm 42.833881 0.000000 16.711289
RightHand -0.838320 0.000000 7.443958
RightHandThumb1 -24.326973 -0.000000 -32.862282
LeftUpLeg -7.449218 48.386699 9.502368
LeftLeg 21.015879 -0.000000 -0.000000
LeftFoot -26.323223 19.738661 -14.061634
LeftToeBase 6.450594 -0.000000 -0.000000
RightUpLeg -36.490333 -29.861683 -30.106128
RightLeg 152.522929 -0.000000 -0.000000
RightFoot 37.027256 11.240897 12.104140
RightToeBase 2.931676 -0.000000 -0.000000
954
root 5.843382 36.635570 5.853343 157.277824 -44.943966 -150.150662
Spine 12.506719 -0.250078 9.847182
Head 6.538854 3.639934 13.165771
LeftShoulder -6.957889 15.426464 17.299999
LeftArm 15.683086 30.172185 -74.963246
LeftForeArm 29.579395 -0.000000 23.251384
LeftHand -8.278486 -0.000000 -21.943518
LeftHandThumb1 -26.253704 0.000000 33.147579
RightShoulder -36.252495 -47.941060 27.595085
RightArm 51.354541 -10.772114 63.159534
RightForeArm 42.698842 -0.000000 16.987316
RightHand -0.661882 -0.000000 7.520791
RightHandThumb1 -24.326973 -0.000000 -32.862282
LeftUpLeg -7.885449 48.436061 9.279747
LeftLeg 21.120868 -0.000000 -0.000000
LeftFoot -26.371953 19.747892 -14.188165
LeftToeBase 6.448241 -0.000000 -0.000000
RightUpLeg -35.962556 -29.594440 -30.378364
RightLeg 152.549560 -0.000000 -0.000000
RightFoot 37.210528 11.476322 11.982942
RightToeBase 3.269233 -0.000000 -0.000000
955
root 5.860158 36.643479 5.867572 157.447266 -44.726431 -150.100986
Spine 12.468617 -0.400336 9.853068
Head 6.399406 3.565062 13.290219
LeftShoulder -6.907088 15.378675 17.340323
LeftArm 15.628948 30.197047 -74.940043
LeftForeArm 29.584291 -0.000000 23.263675
LeftHand -8.280999 -0.000000 -21.840205
LeftHandThumb1 -26.253704 0.000000 33.147579
RightShoulder -36.439961 -47.957108 27.731001
RightArm 51.232120 -10.788516 63.095177
RightForeArm 42.501753 -0.000000 17.293957
RightHand -0.913957 0.000000 7.527857
RightHandThumb1 -24.326973 -0.000000 -32.862282
LeftUpLeg -8.211738 48.580436 9.197870
LeftLeg 21.228904 -0.000000 -0.000000
LeftFoot -26.395069 19.758415 -14.269650
LeftToeBase 6.408909 -0.000000 -0.000000
RightUpLeg -35.522985 -29.217305 -30.462186
RightLeg 152.600754 -0.000000 -0.000000
RightFoot 37.361170 11.624291 11.910654
RightToeBase 3.203553 -0.000000 -0.000000
956
root 5.886269 36.653103 5.882116 157.616468 -44.529369 -150.006823
Spine 12.422313 -0.568500 9.857687
Head 6.234370 3.515527 13.447350
LeftShoulder -6.848870 15.431186 17.382904
LeftArm 15.660371 30.075444 -74.896604
LeftForeArm 29.611381 -0.000000 23.318149
LeftHand -8.282060 -0.000000 -21.839660
LeftHandThumb1 -26.253704 0.000000 33.147579
RightShoulder -36.600607 -47.966868 27.857591
RightArm 51.110281 -10.834412 63.009943
RightForeArm 42.346225 -0.000000 17.618052
RightHand -0.925845 0.000000 7.582231
RightHandThumb1 -24.326973 -0.000000 -32.862282
LeftUpLeg -8.641555 48.742373 9.088393
LeftLeg 21.375588 -0.000000 -0.000000
LeftFoot -26.385837 19.748934 -14.309848
LeftToeBase 6.354668 -0.000000 -0.000000
RightUpLeg -35.177390 -28.933787 -30.437047
RightLeg 152.672484 -0.000000 -0.000000
RightFoot 37.542846 11.448129 12.056667
RightToeBase 3.173820 -0.000000 -0.000000
957
root 5.902129 36.661866 5.896004 157.774848 -44.288088 -149.999879
Spine 12.467691 -0.705536 9.832375
Head 6.047729 3.484973 13.557572
LeftShoulder -6.852551 15.395774 17.411250
LeftArm 15.660581 30.087733 -74.851570
LeftForeArm 29.574337 -0.000000 23.307544
LeftHand -8.290013 -0.000000 -21.790202
LeftHandThumb1 -26.253704 0.000000 33.147579
RightShoulder -36.766464 -48.011724 27.940273
RightArm 51.033147 -10.919586 62.925039
RightForeArm 42.162732 -0.000000 17.930069
RightHand -0.922083 -0.000000 7.701883
RightHandThumb1 -24.326973 -0.000000 -32.862282
LeftUpLeg -8.897926 48.856823 9.040499
LeftLeg 21.485967 -0.000000 -0.000000
LeftFoot -26.394673 19.798940 -14.410459
LeftToeBase 6.332069 -0.000000 -0.000000
RightUpLeg -34.738499 -28.507917 -30.522761
RightLeg 152.740158 -0.000000 -0.000000
RightFoot 37.588518 11.501961 12.040066
RightToeBase 3.271351 -0.000000 -0.000000
